<svg width="52" height="20" viewBox="0 0 52 20" fill="none" xmlns="http://www.w3.org/2000/svg">
<path d="M48.1391 12.5912V0H51.2036V12.5912H48.1391ZM34.9883 10.1689V0.2878H45.7744V10.1689H34.9883ZM38.0287 2.97393V7.50678H42.7823V2.97393H38.0287ZM43.2648 15.4692C42.2997 16.3966 41.1334 17.1081 39.766 17.6038C38.4147 18.0994 36.9991 18.3472 35.5191 18.3472V15.3733C36.6291 15.3573 37.6747 15.1735 38.656 14.8217C39.6534 14.4699 40.4899 13.9663 41.1655 13.3107C41.8573 12.6392 42.3157 11.8558 42.541 10.9604L45.5813 11.536C45.4365 12.1116 45.2355 12.6552 44.9781 13.1668L51.9999 15.757L50.914 18.5871L43.2648 15.4692Z" fill="#241459"/>
<path d="M26.1949 14.8306V4.46905H28.7056V7.46697H29.8571V4.41284H32.4055V15.0742H29.8571V10.1276H28.7056V14.8306H26.1949ZM25.4398 8.87224C25.4398 10.3087 25.1441 11.4205 24.5526 12.2074C23.9611 12.9819 23.1368 13.3691 22.0797 13.3691C21.0226 13.3691 20.192 12.9819 19.5879 12.2074C18.9964 11.4205 18.7007 10.3087 18.7007 8.87224C18.7007 7.44823 18.9964 6.349 19.5879 5.57453C20.192 4.80007 21.0226 4.41284 22.0797 4.41284C23.1368 4.41284 23.9611 4.80007 24.5526 5.57453C25.1441 6.349 25.4398 7.44823 25.4398 8.87224ZM21.2113 8.87224C21.2113 10.3087 21.5008 11.027 22.0797 11.027C22.6586 11.027 22.948 10.3087 22.948 8.87224C22.948 7.44823 22.6586 6.73623 22.0797 6.73623C21.5008 6.73623 21.2113 7.44823 21.2113 8.87224ZM32.5754 18.8028H19.8899V14.0624H22.6649V16.2546H32.5754V18.8028Z" fill="#241459"/>
<path d="M8.87981 10.2648C7.27115 10.2648 5.85553 10.0649 4.63295 9.66519C3.42645 9.24948 2.49343 8.66589 1.83387 7.91441C1.17432 7.14694 0.844548 6.25156 0.844548 5.22827C0.844548 4.20499 1.17432 3.3176 1.83387 2.56613C2.49343 1.79866 3.42645 1.21506 4.63295 0.815343C5.85553 0.41562 7.27115 0.215759 8.87981 0.215759C10.4885 0.215759 11.8961 0.41562 13.1026 0.815343C14.3251 1.21506 15.2662 1.79866 15.9258 2.56613C16.5853 3.3176 16.9151 4.20499 16.9151 5.22827C16.9151 6.25156 16.5853 7.14694 15.9258 7.91441C15.2662 8.66589 14.3251 9.24948 13.1026 9.66519C11.8961 10.0649 10.4885 10.2648 8.87981 10.2648ZM8.87981 3.02181C7.44811 3.02181 6.28183 3.21368 5.38097 3.59741C4.49621 3.98114 4.05383 4.52476 4.05383 5.22827C4.05383 5.93179 4.49621 6.47541 5.38097 6.85914C6.28183 7.24288 7.44811 7.43474 8.87981 7.43474C10.2954 7.43474 11.4456 7.24288 12.3304 6.85914C13.2312 6.47541 13.6817 5.93179 13.6817 5.22827C13.6817 4.52476 13.2312 3.98114 12.3304 3.59741C11.4456 3.21368 10.2954 3.02181 8.87981 3.02181ZM13.8506 14.4619V19.0667H10.8102V14.4619H6.94942V19.0667H3.90905V14.4619H0V11.5599H17.7596V14.4619H13.8506Z" fill="#241459"/>
</svg>
