<svg xmlns="http://www.w3.org/2000/svg" xmlns:xlink="http://www.w3.org/1999/xlink" width="0" height="0">
<symbol id="Logo_s" width="52" height="20" viewBox="0 0 52 20" fill="none">
<path d="M48.1391 12.5912V0H51.2036V12.5912H48.1391ZM34.9883 10.1689V0.2878H45.7744V10.1689H34.9883ZM38.0287 2.97393V7.50678H42.7823V2.97393H38.0287ZM43.2648 15.4692C42.2997 16.3966 41.1334 17.1081 39.766 17.6038C38.4147 18.0994 36.9991 18.3472 35.5191 18.3472V15.3733C36.6291 15.3573 37.6747 15.1735 38.656 14.8217C39.6534 14.4699 40.4899 13.9663 41.1655 13.3107C41.8573 12.6392 42.3157 11.8558 42.541 10.9604L45.5813 11.536C45.4365 12.1116 45.2355 12.6552 44.9781 13.1668L51.9999 15.757L50.914 18.5871L43.2648 15.4692Z" fill="#241459"/>
<path d="M26.1949 14.8306V4.46905H28.7056V7.46697H29.8571V4.41284H32.4055V15.0742H29.8571V10.1276H28.7056V14.8306H26.1949ZM25.4398 8.87224C25.4398 10.3087 25.1441 11.4205 24.5526 12.2074C23.9611 12.9819 23.1368 13.3691 22.0797 13.3691C21.0226 13.3691 20.192 12.9819 19.5879 12.2074C18.9964 11.4205 18.7007 10.3087 18.7007 8.87224C18.7007 7.44823 18.9964 6.349 19.5879 5.57453C20.192 4.80007 21.0226 4.41284 22.0797 4.41284C23.1368 4.41284 23.9611 4.80007 24.5526 5.57453C25.1441 6.349 25.4398 7.44823 25.4398 8.87224ZM21.2113 8.87224C21.2113 10.3087 21.5008 11.027 22.0797 11.027C22.6586 11.027 22.948 10.3087 22.948 8.87224C22.948 7.44823 22.6586 6.73623 22.0797 6.73623C21.5008 6.73623 21.2113 7.44823 21.2113 8.87224ZM32.5754 18.8028H19.8899V14.0624H22.6649V16.2546H32.5754V18.8028Z" fill="#241459"/>
<path d="M8.87981 10.2648C7.27115 10.2648 5.85553 10.0649 4.63295 9.66519C3.42645 9.24948 2.49343 8.66589 1.83387 7.91441C1.17432 7.14694 0.844548 6.25156 0.844548 5.22827C0.844548 4.20499 1.17432 3.3176 1.83387 2.56613C2.49343 1.79866 3.42645 1.21506 4.63295 0.815343C5.85553 0.41562 7.27115 0.215759 8.87981 0.215759C10.4885 0.215759 11.8961 0.41562 13.1026 0.815343C14.3251 1.21506 15.2662 1.79866 15.9258 2.56613C16.5853 3.3176 16.9151 4.20499 16.9151 5.22827C16.9151 6.25156 16.5853 7.14694 15.9258 7.91441C15.2662 8.66589 14.3251 9.24948 13.1026 9.66519C11.8961 10.0649 10.4885 10.2648 8.87981 10.2648ZM8.87981 3.02181C7.44811 3.02181 6.28183 3.21368 5.38097 3.59741C4.49621 3.98114 4.05383 4.52476 4.05383 5.22827C4.05383 5.93179 4.49621 6.47541 5.38097 6.85914C6.28183 7.24288 7.44811 7.43474 8.87981 7.43474C10.2954 7.43474 11.4456 7.24288 12.3304 6.85914C13.2312 6.47541 13.6817 5.93179 13.6817 5.22827C13.6817 4.52476 13.2312 3.98114 12.3304 3.59741C11.4456 3.21368 10.2954 3.02181 8.87981 3.02181ZM13.8506 14.4619V19.0667H10.8102V14.4619H6.94942V19.0667H3.90905V14.4619H0V11.5599H17.7596V14.4619H13.8506Z" fill="#241459"/>
</symbol>

<symbol id="Logo_m" width="87" height="33" viewBox="0 0 87 33" fill="none">
<path d="M80.5404 21.1949V0H85.6676V21.1949H80.5404ZM58.5381 17.1174V0.484454H76.584V17.1174H58.5381ZM63.6249 5.00603V12.6362H71.578V5.00603H63.6249ZM72.3854 26.0394C70.7706 27.6005 68.8193 28.7981 66.5316 29.6325C64.2708 30.4668 61.9024 30.884 59.4263 30.884V25.878C61.2833 25.851 63.0328 25.5415 64.6745 24.9494C66.3432 24.3573 67.7427 23.5095 68.8731 22.406C70.0304 21.2756 70.7975 19.9568 71.1743 18.4497L76.2611 19.4186C76.0188 20.3875 75.6824 21.3025 75.2518 22.1638L86.9998 26.5239L85.1831 31.2877L72.3854 26.0394Z" fill="#241459"/>
<path d="M43.826 24.9644V7.52278H48.0266V12.5692H49.9531V7.42816H54.2168V25.3744H49.9531V17.0479H48.0266V24.9644H43.826ZM42.5627 14.9347C42.5627 17.3528 42.0679 19.2241 41.0783 20.5488C40.0887 21.8525 38.7096 22.5043 36.9409 22.5043C35.1723 22.5043 33.7826 21.8525 32.772 20.5488C31.7824 19.2241 31.2876 17.3528 31.2876 14.9347C31.2876 12.5376 31.7824 10.6873 32.772 9.38364C33.7826 8.07999 35.1723 7.42816 36.9409 7.42816C38.7096 7.42816 40.0887 8.07999 41.0783 9.38364C42.0679 10.6873 42.5627 12.5376 42.5627 14.9347ZM35.4881 14.9347C35.4881 17.3528 35.9724 18.5618 36.9409 18.5618C37.9095 18.5618 38.3938 17.3528 38.3938 14.9347C38.3938 12.5376 37.9095 11.3391 36.9409 11.3391C35.9724 11.3391 35.4881 12.5376 35.4881 14.9347ZM54.5011 31.6509H33.2773V23.6713H37.92V27.3615H54.5011V31.6509Z" fill="#241459"/>
<path d="M14.8566 17.2787C12.1652 17.2787 9.79675 16.9423 7.75128 16.2695C5.73271 15.5697 4.17169 14.5873 3.06821 13.3224C1.96473 12.0305 1.41299 10.5233 1.41299 8.80077C1.41299 7.07827 1.96473 5.58454 3.06821 4.31957C4.17169 3.02769 5.73271 2.04532 7.75128 1.37247C9.79675 0.699616 12.1652 0.36319 14.8566 0.36319C17.548 0.36319 19.903 0.699616 21.9216 1.37247C23.9671 2.04532 25.5415 3.02769 26.645 4.31957C27.7485 5.58454 28.3002 7.07827 28.3002 8.80077C28.3002 10.5233 27.7485 12.0305 26.645 13.3224C25.5415 14.5873 23.9671 15.5697 21.9216 16.2695C19.903 16.9423 17.548 17.2787 14.8566 17.2787ZM14.8566 5.08662C12.4613 5.08662 10.51 5.40959 9.00278 6.05553C7.52251 6.70147 6.78237 7.61655 6.78237 8.80077C6.78237 9.985 7.52251 10.9001 9.00278 11.546C10.51 12.192 12.4613 12.5149 14.8566 12.5149C17.2251 12.5149 19.1494 12.192 20.6297 11.546C22.1369 10.9001 22.8905 9.985 22.8905 8.80077C22.8905 7.61655 22.1369 6.70147 20.6297 6.05553C19.1494 5.40959 17.2251 5.08662 14.8566 5.08662ZM23.1731 24.3437V32.095H18.0863V24.3437H11.6269V32.095H6.54014V24.3437H0V19.4588H29.7132V24.3437H23.1731Z" fill="#241459"/>
</symbol>

<symbol id="calendar" fill="none" viewBox="0 0 20 20"><path fill="currentColor" d="M16.25 2.5h-1.875v-.625a.625.625 0 1 0-1.25 0V2.5h-6.25v-.625a.625.625 0 0 0-1.25 0V2.5H3.75A1.25 1.25 0 0 0 2.5 3.75v12.5a1.25 1.25 0 0 0 1.25 1.25h12.5a1.25 1.25 0 0 0 1.25-1.25V3.75a1.25 1.25 0 0 0-1.25-1.25zM5.625 3.75v.625a.625.625 0 0 0 1.25 0V3.75h6.25v.625a.625.625 0 1 0 1.25 0V3.75h1.875v2.5H3.75v-2.5h1.875zm10.625 12.5H3.75V7.5h12.5v8.75zm-2.995-6.692a.626.626 0 0 1 0 .884l-3.75 3.75a.626.626 0 0 1-.885 0l-1.875-1.875a.625.625 0 0 1 .885-.884l1.433 1.433 3.307-3.308a.625.625 0 0 1 .885 0z"/></symbol>
<symbol id="calendarFull" fill="none" viewBox="0 0 20 20"><path fill="currentColor" d="M16.25 2.5h-1.875v-.625a.625.625 0 1 0-1.25 0V2.5h-6.25v-.625a.625.625 0 0 0-1.25 0V2.5H3.75A1.25 1.25 0 0 0 2.5 3.75v12.5a1.25 1.25 0 0 0 1.25 1.25h12.5a1.25 1.25 0 0 0 1.25-1.25V3.75a1.25 1.25 0 0 0-1.25-1.25zm-2.995 7.942l-3.75 3.75a.626.626 0 0 1-.885 0l-1.875-1.875a.625.625 0 0 1 .885-.884l1.433 1.433 3.307-3.308a.626.626 0 0 1 .885.884zM3.75 6.25v-2.5h1.875v.625a.625.625 0 0 0 1.25 0V3.75h6.25v.625a.625.625 0 1 0 1.25 0V3.75h1.875v2.5H3.75z"/></symbol>
<symbol id="calendarPlus" fill="none" viewBox="0 0 20 20"><path fill="currentColor" stroke="currentColor" stroke-linecap="round" stroke-linejoin="round" stroke-width="1.5" d="M10.417 17.5H5a1.667 1.667 0 0 1-1.667-1.667v-10A1.667 1.667 0 0 1 5 4.167h10a1.667 1.667 0 0 1 1.667 1.666V10m-3.334-7.5v3.333M6.668 2.5v3.333M3.334 9.167h13.333m-3.334 6.666h5m-2.5-2.5v5"/></symbol>
<symbol id="camera" fill="none" viewBox="0 0 20 20"><path fill="currentColor" d="M16.25 4.375h-2.166L13.02 2.778a.625.625 0 0 0-.52-.278h-5a.625.625 0 0 0-.52.278L5.915 4.375H3.75A1.875 1.875 0 0 0 1.875 6.25V15a1.875 1.875 0 0 0 1.875 1.875h12.5A1.875 1.875 0 0 0 18.125 15V6.25a1.875 1.875 0 0 0-1.875-1.875zM16.875 15a.624.624 0 0 1-.625.625H3.75A.625.625 0 0 1 3.125 15V6.25a.625.625 0 0 1 .625-.625h2.5a.625.625 0 0 0 .52-.278L7.834 3.75h4.33l1.066 1.597a.625.625 0 0 0 .52.278h2.5a.625.625 0 0 1 .625.625V15zM10 6.875a3.438 3.438 0 1 0 0 6.875 3.438 3.438 0 0 0 0-6.875zm0 5.625a2.187 2.187 0 1 1 0-4.375 2.187 2.187 0 0 1 0 4.375z"/></symbol>
<symbol id="chat" fill="none" viewBox="0 0 20 20"><path fill="currentColor" d="M7.834 8.665a.667.667 0 0 1 .666-.667h4a.667.667 0 0 1 0 1.334h-4a.667.667 0 0 1-.666-.667zm.666 2a.667.667 0 0 0 0 1.333h2.667a.667.667 0 1 0 0-1.333H8.5zm-6-.667a8 8 0 1 1 3.995 6.927l-3.117 1.04a.666.666 0 0 1-.852-.816l.95-3.321a8 8 0 0 1-.976-3.83zm8-6.666a6.667 6.667 0 0 0-5.733 10.07.667.667 0 0 1 .067.523l-.679 2.373 2.21-.736a.667.667 0 0 1 .569.07 6.667 6.667 0 1 0 3.567-12.3z"/></symbol>
<symbol id="check" fill="none" viewBox="0 0 20 20"><path fill="currentColor" d="M9 15.833l-4-4.255 1.4-1.49L9 12.856l6.6-7.022 1.4 1.49-8 8.51z"/></symbol>
<symbol id="close" fill="none" viewBox="0 0 16 16"><path fill="currentColor" d="M8.94 8l4.2-4.193a.67.67 0 0 0-.947-.947L8 7.06l-4.194-4.2a.67.67 0 0 0-.946.947L7.06 8l-4.2 4.193a.666.666 0 0 0 0 .947.666.666 0 0 0 .946 0L8 8.94l4.193 4.2a.665.665 0 0 0 .947 0 .666.666 0 0 0 0-.947L8.94 8z"/></symbol>
<symbol id="comment" fill="none" viewBox="0 0 20 20"><path fill="currentColor" d="M3.413 16.712l2.54-.847.457.222c1.059.514 2.269.788 3.59.788 4.37 0 7.5-3.123 7.5-6.875 0-3.766-3.107-6.875-7.5-6.875S2.5 6.234 2.5 10a6.663 6.663 0 0 0 1.353 3.99l.422.563-.863 2.158v.002zm-.884 1.613a.625.625 0 0 1-.779-.825l1.104-2.759A7.913 7.913 0 0 1 1.25 10c0-4.143 3.353-8.125 8.75-8.125 5.398 0 8.75 3.982 8.75 8.125s-3.387 8.125-8.75 8.125c-1.556 0-2.946-.335-4.135-.913l-3.338 1.113h.002z"/></symbol>
<symbol id="down_s" fill="none" viewBox="0 0 20 20"><path fill="currentColor" d="M10 12.48a.866.866 0 0 1-.323-.063.754.754 0 0 1-.26-.167L5.582 8.417a.79.79 0 0 1-.229-.584.79.79 0 0 1 .23-.583.79.79 0 0 1 .583-.23.79.79 0 0 1 .583.23L10 10.5l3.25-3.25a.79.79 0 0 1 .583-.23.79.79 0 0 1 .583.23.79.79 0 0 1 .23.583.79.79 0 0 1-.23.584l-3.833 3.833a.736.736 0 0 1-.27.178.903.903 0 0 1-.313.051z"/></symbol>
<symbol id="file" fill="none" viewBox="0 0 20 20"><path fill="currentColor" d="M13.125 10.833a.625.625 0 0 0-.625-.625h-5a.625.625 0 0 0 0 1.25h5a.625.625 0 0 0 .625-.625zm0 3.334a.625.625 0 0 0-.625-.625h-5a.625.625 0 1 0 0 1.25h5a.625.625 0 0 0 .625-.625z"/><path fill="currentColor" fill-rule="evenodd" d="M5.833 1.875a2.292 2.292 0 0 0-2.292 2.292v11.666a2.292 2.292 0 0 0 2.292 2.292h8.334a2.292 2.292 0 0 0 2.291-2.292V6.64c0-.317-.103-.626-.295-.88l-2.498-3.306a1.458 1.458 0 0 0-1.163-.579H5.833zM4.791 4.167c0-.575.467-1.042 1.042-1.042h6.042v3.664c0 .345.28.625.625.625h2.708v8.42c0 .574-.466 1.041-1.042 1.041H5.833a1.042 1.042 0 0 1-1.042-1.042V4.167z" clip-rule="evenodd"/></symbol>
<symbol id="fileFull" fill="none" viewBox="0 0 20 20"><path fill="currentColor" fill-rule="evenodd" d="M11.875 2.083a.208.208 0 0 0-.209-.208H5.833a2.292 2.292 0 0 0-2.292 2.292v11.666a2.292 2.292 0 0 0 2.292 2.292h8.334a2.292 2.292 0 0 0 2.291-2.292v-8.21a.209.209 0 0 0-.208-.209H12.5a.625.625 0 0 1-.625-.625V2.083zm.625 8.125a.625.625 0 0 1 0 1.25h-5a.625.625 0 1 1 0-1.25h5zm0 3.334a.625.625 0 1 1 0 1.25h-5a.625.625 0 0 1 0-1.25h5z" clip-rule="evenodd"/><path fill="currentColor" d="M13.125 2.353c0-.153.16-.25.28-.155.101.082.19.177.27.285l2.51 3.498c.057.08-.005.183-.103.183h-2.749a.208.208 0 0 1-.208-.208V2.353z"/></symbol>
<symbol id="home" fill="none" viewBox="0 0 20 20"><path stroke="currentColor" stroke-linecap="round" stroke-linejoin="round" d="M16.667 15.833V8.75a.834.834 0 0 0-.334-.667L10.5 3.708a.833.833 0 0 0-1 0L3.667 8.083a.833.833 0 0 0-.333.667v7.083a.833.833 0 0 0 .833.834H7.5a.833.833 0 0 0 .834-.834v-2.5a.833.833 0 0 1 .833-.833h1.667a.833.833 0 0 1 .833.833v2.5a.833.833 0 0 0 .833.834h3.334a.833.833 0 0 0 .833-.834z"/></symbol>
<symbol id="homeFull" fill="none" viewBox="0 0 20 20"><path fill="currentColor" stroke="currentColor" stroke-linecap="round" stroke-linejoin="round" d="M16.667 15.833V8.75a.834.834 0 0 0-.334-.667L10.5 3.708a.833.833 0 0 0-1 0L3.667 8.083a.833.833 0 0 0-.333.667v7.083a.833.833 0 0 0 .833.834H7.5a.833.833 0 0 0 .834-.834v-2.5a.833.833 0 0 1 .833-.833h1.667a.833.833 0 0 1 .833.833v2.5a.833.833 0 0 0 .833.834h3.334a.833.833 0 0 0 .833-.834z"/></symbol>
<symbol id="map" fill="none" viewBox="0 0 20 20"><path fill="currentColor" d="M13 9a3 3 0 1 1-6 0 3 3 0 0 1 6 0zm-1 0a2 2 0 1 0-4 0 2 2 0 0 0 4 0zm2.95 4.955A7.005 7.005 0 0 0 10 2a7 7 0 0 0-7 7.003c0 1.857.737 3.638 2.05 4.952l1.521 1.499 2.043 1.985.133.118c.775.628 1.91.588 2.64-.118l2.435-2.37 1.128-1.114zM5.755 4.756a6 6 0 0 1 10.246 4.12 6.01 6.01 0 0 1-1.58 4.19l-.176.184-1.321 1.304-2.23 2.169-.094.08a1 1 0 0 1-1.2-.001l-.093-.08-2.98-2.905-.572-.567-.176-.183a6.01 6.01 0 0 1 .176-8.311z"/></symbol>
<symbol id="mapFull" fill="none" viewBox="0 0 20 20"><path fill="currentColor" d="M14.95 13.955A7.005 7.005 0 0 0 10 2a7 7 0 0 0-7 7.003c0 1.857.737 3.638 2.05 4.952l1.521 1.499 2.043 1.985.133.118c.775.628 1.91.588 2.64-.118l2.435-2.37 1.128-1.114zM10 12a3 3 0 1 1 0-6 3 3 0 0 1 0 6z"/></symbol>
<symbol id="minus" fill="none" viewBox="0 0 20 20"><path fill="currentColor" d="M15.833 10.832H4.167V9.165h11.666v1.667z"/></symbol>
<symbol id="more" fill="none" viewBox="0 0 20 20"><path fill="currentColor" d="M10 6.667c.917 0 1.667-.75 1.667-1.667S10.917 3.333 10 3.333c-.916 0-1.666.75-1.666 1.667S9.084 6.667 10 6.667zm0 1.666c-.916 0-1.666.75-1.666 1.667s.75 1.667 1.666 1.667c.917 0 1.667-.75 1.667-1.667S10.917 8.333 10 8.333zm0 5c-.916 0-1.666.75-1.666 1.667s.75 1.667 1.666 1.667c.917 0 1.667-.75 1.667-1.667s-.75-1.667-1.667-1.667z"/></symbol>
<symbol id="pencil" fill="none" viewBox="0 0 20 20"><g fill="currentColor" clip-path="url(#a)"><path d="M.977 15.932A3.333 3.333 0 0 0 0 18.29V20h1.71c.885 0 1.733-.35 2.357-.976l11.12-11.12-3.091-3.09-11.12 11.12zM19.287.713a2.185 2.185 0 0 0-3.091 0l-2.922 2.922 3.09 3.091 2.923-2.922a2.186 2.186 0 0 0 0-3.091z"/></g><defs><clipPath><path fill="#fff" d="M0 0h20v20H0z"/></clipPath></defs></symbol>
<symbol id="people" fill="none" viewBox="0 0 20 20"><path fill="currentColor" d="M18.75 17.5s1.25 0 1.25-1.25-1.25-5-6.25-5-6.25 3.75-6.25 5 1.25 1.25 1.25 1.25h10zm-9.973-1.25l-.027-.005c.001-.33.209-1.288.95-2.15.69-.809 1.902-1.595 4.05-1.595 2.146 0 3.359.787 4.05 1.595.741.862.947 1.821.95 2.15l-.01.002-.017.003H8.777zm4.973-7.5a2.5 2.5 0 1 0 0-5 2.5 2.5 0 0 0 0 5zm3.75-2.5a3.75 3.75 0 1 1-7.498 0 3.75 3.75 0 0 1 7.498 0zM8.67 11.6a7.497 7.497 0 0 0-1.537-.309 8.727 8.727 0 0 0-.883-.041c-5 0-6.25 3.75-6.25 5 0 .833.417 1.25 1.25 1.25h5.27a2.8 2.8 0 0 1-.27-1.25c0-1.262.471-2.553 1.362-3.63A6.612 6.612 0 0 1 8.67 11.6zm-2.52.9A6.875 6.875 0 0 0 5 16.25H1.25c0-.325.205-1.287.95-2.155.681-.795 1.865-1.57 3.95-1.594V12.5zM1.875 6.875a3.75 3.75 0 1 1 7.5 0 3.75 3.75 0 0 1-7.5 0zm3.75-2.5a2.5 2.5 0 1 0 0 5 2.5 2.5 0 0 0 0-5z"/></symbol>
<symbol id="peopleFull" fill="none" viewBox="0 0 20 20"><path fill="currentColor" d="M8.75 17.5s-1.25 0-1.25-1.25 1.25-5 6.25-5S20 15 20 16.25s-1.25 1.25-1.25 1.25h-10zm5-7.5a3.75 3.75 0 1 0 0-7.5 3.75 3.75 0 0 0 0 7.5zm-7.23 7.5a2.8 2.8 0 0 1-.27-1.25c0-1.694.85-3.438 2.42-4.65a7.875 7.875 0 0 0-2.42-.35c-5 0-6.25 3.75-6.25 5s1.25 1.25 1.25 1.25h5.27zM5.625 10a3.125 3.125 0 1 0 0-6.25 3.125 3.125 0 0 0 0 6.25z"/></symbol>
<symbol id="person" fill="none" viewBox="0 0 20 20"><path fill="currentColor" d="M10 10a3.75 3.75 0 1 0 0-7.5 3.75 3.75 0 0 0 0 7.5zm2.5-3.75a2.5 2.5 0 1 1-5 0 2.5 2.5 0 0 1 5 0zm5 10c0 1.25-1.25 1.25-1.25 1.25H3.75s-1.25 0-1.25-1.25 1.25-5 7.5-5 7.5 3.75 7.5 5zm-1.25-.005c-.001-.308-.192-1.233-1.04-2.08-.815-.815-2.349-1.665-5.21-1.665-2.861 0-4.395.85-5.21 1.665-.848.848-1.038 1.773-1.04 2.08h12.5z"/></symbol>
<symbol id="personFull" fill="none" viewBox="0 0 20 20"><path fill="currentColor" d="M3.75 17.5s-1.25 0-1.25-1.25 1.25-5 7.5-5 7.5 3.75 7.5 5-1.25 1.25-1.25 1.25H3.75zM10 10a3.75 3.75 0 1 0 0-7.5 3.75 3.75 0 0 0 0 7.5z"/></symbol>
<symbol id="plus" fill="none" viewBox="0 0 20 20"><path fill="currentColor" d="M15.833 10.832h-5v5H9.166v-5h-5V9.165h5v-5h1.667v5h5v1.667z"/></symbol>
<symbol id="search" fill="none" viewBox="0 0 20 20"><path fill="currnetColor" stroke="currentColor" stroke-linecap="round" stroke-linejoin="round" stroke-width="1.5" d="M17.5 17.5l-3.619-3.62m0 0a6.666 6.666 0 1 0-9.426-9.426 6.666 6.666 0 0 0 9.426 9.427z"/></symbol>
<symbol id="send" fill="none" viewBox="0 0 18 18"><g clip-path="url(#a)"><path fill="currentColor" d="M17.34.662a2.224 2.224 0 0 0-2.1-.6l-12 2.527a3.746 3.746 0 0 0-2.14 6.36l1.288 1.289a.75.75 0 0 1 .22.53v2.377c.001.334.078.663.225.963l-.006.005.02.02c.219.442.578.8 1.02 1.017l.02.02.005-.006c.3.146.63.223.964.225h2.376a.75.75 0 0 1 .53.219l1.288 1.287a3.722 3.722 0 0 0 3.844.907 3.7 3.7 0 0 0 2.508-2.99l2.531-12.026A2.232 2.232 0 0 0 17.34.662zM3.45 9.179L2.16 7.89a2.205 2.205 0 0 1-.54-2.306 2.233 2.233 0 0 1 1.874-1.52l11.88-2.5-11.268 11.27v-2.067a2.234 2.234 0 0 0-.656-1.59zm10.478 5.377a2.25 2.25 0 0 1-3.817 1.284l-1.29-1.29a2.233 2.233 0 0 0-1.589-.659H5.166l11.27-11.266-2.508 11.931z"/></g><defs><clipPath><path fill="#fff" d="M0 0h18v18H0z"/></clipPath></defs></symbol>
<symbol id="setting" fill="none" viewBox="0 0 20 20"><g fill="currentColor" clip-path="url(#a)"><path d="M10 6.667a3.333 3.333 0 1 0 0 6.667 3.333 3.333 0 0 0 0-6.667zm0 5a1.667 1.667 0 1 1 0-3.334 1.667 1.667 0 0 1 0 3.334z"/><path d="M17.745 11.583l-.37-.213a7.587 7.587 0 0 0 0-2.742l.37-.213a2.502 2.502 0 0 0-2.5-4.333l-.37.214A7.482 7.482 0 0 0 12.5 2.927V2.5a2.5 2.5 0 1 0-5 0v.428a7.48 7.48 0 0 0-2.373 1.371l-.373-.216a2.501 2.501 0 1 0-2.5 4.334l.37.213a7.584 7.584 0 0 0 0 2.742l-.37.213a2.501 2.501 0 1 0 2.5 4.333l.371-.214A7.48 7.48 0 0 0 7.5 17.073v.427a2.5 2.5 0 0 0 5 0v-.427a7.48 7.48 0 0 0 2.373-1.372l.373.215a2.501 2.501 0 1 0 2.5-4.334v.001zm-2.123-3.146a5.873 5.873 0 0 1 0 3.125.834.834 0 0 0 .387.944l.903.521a.834.834 0 0 1-.834 1.445l-.904-.524a.833.833 0 0 0-1.013.138 5.82 5.82 0 0 1-2.702 1.562.834.834 0 0 0-.626.808V17.5a.833.833 0 0 1-1.667 0v-1.043a.833.833 0 0 0-.626-.808 5.82 5.82 0 0 1-2.702-1.566.834.834 0 0 0-1.012-.137l-.903.522a.833.833 0 1 1-.834-1.443l.904-.522a.833.833 0 0 0 .386-.944 5.873 5.873 0 0 1 0-3.125.833.833 0 0 0-.387-.94l-.904-.522a.834.834 0 0 1 .834-1.445l.905.524a.833.833 0 0 0 1.011-.134 5.82 5.82 0 0 1 2.703-1.563.833.833 0 0 0 .626-.81V2.5a.833.833 0 1 1 1.667 0v1.043a.833.833 0 0 0 .625.808 5.82 5.82 0 0 1 2.703 1.566.834.834 0 0 0 1.012.137l.904-.522a.833.833 0 1 1 .833 1.443l-.903.522a.833.833 0 0 0-.386.94z"/></g><defs><clipPath><path fill="#fff" d="M0 0h20v20H0z"/></clipPath></defs></symbol>
<symbol id="smile" fill="none" viewBox="0 0 20 20"><path fill="currentColor" fill-rule="evenodd" d="M10 2.292a7.708 7.708 0 1 0 0 15.416 7.708 7.708 0 0 0 0-15.416zM1.042 10a8.958 8.958 0 1 1 17.916 0 8.958 8.958 0 0 1-17.916 0zm5.955 2.96a.624.624 0 0 1 .875-.128c.607.45 1.34.71 2.128.71s1.52-.261 2.127-.71a.623.623 0 0 1 .991.344.625.625 0 0 1-.246.659c-.83.62-1.837.956-2.872.957a4.806 4.806 0 0 1-2.873-.957.625.625 0 0 1-.13-.874z" clip-rule="evenodd"/><path fill="currentColor" d="M13.333 8.75c0 .69-.373 1.25-.833 1.25-.46 0-.834-.56-.834-1.25s.374-1.25.834-1.25c.46 0 .833.56.833 1.25zm-5 0c0 .69-.373 1.25-.833 1.25-.46 0-.833-.56-.833-1.25S7.04 7.5 7.5 7.5c.46 0 .833.56.833 1.25z"/></symbol>
<symbol id="thumbs-up" fill="none" viewBox="0 0 20 20"><path fill="currentColor" d="M16.85 7.958a1.862 1.862 0 0 0-1.433-.666h-3.358V5c0-1.267-1.025-2.292-2.359-2.292-.583 0-1.108.35-1.341.892L6.241 8.542H4.684a1.974 1.974 0 0 0-1.976 1.975v4.808c0 1.083.892 1.967 1.976 1.967h9.633c.908 0 1.683-.65 1.841-1.55l1.1-6.25a1.89 1.89 0 0 0-.416-1.534h.008zM4.683 16.042a.724.724 0 0 1-.724-.717v-4.808c0-.4.325-.725.725-.725h1.341v6.25H4.684zm10.25-.517a.62.62 0 0 1-.616.517H7.283v-6.75l2.225-5.209c.034-.075.109-.133.267-.133.575 0 1.034.467 1.034 1.042v3.541h4.608c.191 0 .358.075.475.217a.631.631 0 0 1 .133.517l-1.1 6.25.008.008z"/></symbol>
<symbol id="time" fill="none" viewBox="0 0 20 20"><path fill="currentColor" fill-rule="evenodd" d="M10.5 9.586l3.242 3.242-.706.708L9.5 10V5h1v4.586zm-.5 8.747a8.333 8.333 0 1 1 0-16.666 8.333 8.333 0 1 1 0 16.666zm0-1a7.333 7.333 0 1 0 0-14.666 7.333 7.333 0 0 0 0 14.666z" clip-rule="evenodd"/></symbol>
<symbol id="write" fill="none" viewBox="0 0 20 20"><path fill="currentColor" d="M6.433 13.713l1.468-.423 8.835-8.942a.38.38 0 0 0-.002-.533l-.53-.535a.37.37 0 0 0-.526-.002l-8.812 8.918-.433 1.517zM17.253 2.22l.529.536a1.9 1.9 0 0 1 .013 2.663L8.69 14.634l-3.137.903a.748.748 0 0 1-.925-.519.75.75 0 0 1-.002-.421l.913-3.2 9.08-9.191a1.847 1.847 0 0 1 2.633.014zm-9.6.96c.413 0 .749.34.749.758a.752.752 0 0 1-.749.758H4.66c-.827 0-1.497.678-1.497 1.514v9.088c0 .837.67 1.515 1.497 1.515h8.98c.826 0 1.497-.678 1.497-1.515V12.27c0-.418.335-.757.749-.757.413 0 .748.339.748.758v3.028c0 1.674-1.34 3.03-2.994 3.03H4.66c-1.654 0-2.994-1.356-2.994-3.03V6.21c0-1.672 1.34-3.03 2.994-3.03h2.993z"/></symbol>
<symbol id="down" fill="none" viewBox="0 0 20 20"><path fill="currentColor" d="M16.692 7.942l-6.25 6.25a.625.625 0 0 1-.884 0l-6.25-6.25a.625.625 0 0 1 .884-.884L10 12.866l5.808-5.808a.625.625 0 1 1 .884.884z"/></symbol>
<symbol id="left" fill="none" viewBox="0 0 20 20"><path fill="currentColor" d="M12.942 15.808a.624.624 0 1 1-.884.884l-6.25-6.25a.625.625 0 0 1 0-.884l6.25-6.25a.626.626 0 0 1 .884.884L7.134 10l5.808 5.808z"/></symbol>
<symbol id="right" fill="none" viewBox="0 0 20 20"><path fill="currentColor" d="M14.192 10.442l-6.25 6.25a.626.626 0 0 1-.884-.884L12.866 10 7.058 4.192a.625.625 0 0 1 .884-.884l6.25 6.25a.623.623 0 0 1 0 .884z"/></symbol>
<symbol id="up" fill="none" viewBox="0 0 20 20"><path fill="currentColor" d="M16.692 12.942a.625.625 0 0 1-.884 0L10 7.134l-5.808 5.808a.625.625 0 1 1-.884-.884l6.25-6.25a.625.625 0 0 1 .884 0l6.25 6.25a.623.623 0 0 1 0 .884z"/></symbol>
<symbol id="alarm" fill="none" viewBox="0 0 20 20"><path fill="currentColor" d="M17.328 13.745c-.433-.747-1.078-2.86-1.078-5.62a6.25 6.25 0 0 0-12.5 0c0 2.76-.645 4.873-1.079 5.62a1.25 1.25 0 0 0 1.08 1.88h3.187a3.125 3.125 0 0 0 6.124 0h3.188a1.25 1.25 0 0 0 1.078-1.88ZM10 16.875a1.875 1.875 0 0 1-1.767-1.25h3.534A1.876 1.876 0 0 1 10 16.875Zm-6.25-2.5C4.352 13.341 5 10.944 5 8.125a5 5 0 0 1 10 0c0 2.816.647 5.213 1.25 6.25H3.75Z"/></symbol>
<symbol id="checkbox" fill="none" viewBox="0 0 14 14"><path fill="currentColor" d="m5.5 9.59 5.33-5.33-.59-.59L5.5 8.41 3.125 6.035l-.59.59L5.5 9.59Zm-4.153 3.743c-.384 0-.705-.128-.961-.385A1.308 1.308 0 0 1 0 11.987V1.347C0 .963.129.642.386.386.643.129.963 0 1.346 0h10.642c.383 0 .703.129.96.386a1.3 1.3 0 0 1 .385.96v10.642c0 .383-.128.703-.385.96a1.3 1.3 0 0 1-.961.385H1.347Zm0-.833h10.64a.491.491 0 0 0 .353-.16.486.486 0 0 0 .16-.353V1.347a.492.492 0 0 0-.16-.354.486.486 0 0 0-.353-.16H1.347a.493.493 0 0 0-.354.16.486.486 0 0 0-.16.354v10.64c0 .128.054.246.16.353a.49.49 0 0 0 .353.16"/></symbol>
<symbol id="ban" fill="none" viewBox="0 0 20 20"><path fill="currentColor" d="M10 1.667a8.333 8.333 0 1 0 0 16.666 8.333 8.333 0 0 0 0-16.666Zm0 15A6.667 6.667 0 0 1 3.334 10a6.6 6.6 0 0 1 1.408-4.083l9.342 9.341A6.6 6.6 0 0 1 10 16.667Zm5.259-2.584L5.917 4.742A6.6 6.6 0 0 1 10 3.333 6.667 6.667 0 0 1 16.667 10a6.6 6.6 0 0 1-1.408 4.083Z"/></symbol>
<symbol id="check_circle" fill="none" viewBox="0 0 20 20"><mask id="a" width="20" height="20" x="0" y="0" maskUnits="userSpaceOnUse" style="mask-type:alpha"><path fill="currentColor" d="M0 0h20v20H0z"/></mask><g mask="url(#a)"><path fill="#fff" d="m8.834 13.833 5.875-5.875-1.167-1.166L8.834 11.5 6.459 9.125l-1.167 1.167 3.542 3.541Zm1.166 4.5a8.111 8.111 0 0 1-3.25-.656 8.411 8.411 0 0 1-2.646-1.781 8.41 8.41 0 0 1-1.78-2.646A8.11 8.11 0 0 1 1.667 10a8.11 8.11 0 0 1 .657-3.25 8.41 8.41 0 0 1 1.78-2.646A8.421 8.421 0 0 1 6.75 2.322 8.119 8.119 0 0 1 10 1.667a8.12 8.12 0 0 1 3.25.655 8.421 8.421 0 0 1 2.646 1.782 8.41 8.41 0 0 1 1.781 2.646 8.11 8.11 0 0 1 .657 3.25 8.11 8.11 0 0 1-.657 3.25 8.409 8.409 0 0 1-1.78 2.646 8.411 8.411 0 0 1-2.647 1.78 8.111 8.111 0 0 1-3.25.657Zm0-1.666c1.861 0 3.438-.646 4.73-1.938 1.291-1.291 1.937-2.868 1.937-4.729 0-1.861-.646-3.438-1.938-4.73C13.438 3.98 11.861 3.334 10 3.334c-1.86 0-3.437.646-4.729 1.938C3.98 6.563 3.334 8.139 3.334 10c0 1.861.645 3.438 1.937 4.73 1.292 1.29 2.868 1.937 4.73 1.937Z"/></g></symbol>
</svg>